<svg xmlns="http://www.w3.org/2000/svg" viewBox="0 0 480 360" fill="none">
  <!-- Flat: oversized carte visite (85x55 ratio) with registration target watermark + pencil -->
  <g transform="rotate(-4 240 190)">
    <rect x="98" y="118" width="272" height="160" rx="14" fill="#FFFFFF" stroke="#15171E" stroke-width="3"/>
    <rect x="98" y="118" width="272" height="160" rx="14" stroke="#0284C7" stroke-width="1.5" stroke-dasharray="7 6" transform="translate(6 6) scale(0.97)"/>
    <g opacity="0.14" stroke="#0284C7" stroke-width="4">
      <circle cx="234" cy="198" r="52" fill="none"/>
      <circle cx="234" cy="198" r="14" fill="none"/>
      <path d="M234 134v128M170 198h128"/>
    </g>
    <rect x="122" y="142" width="110" height="14" rx="7" fill="#0284C7"/>
    <rect x="122" y="170" width="80" height="8" rx="4" fill="#E6E2D6"/>
    <rect x="122" y="188" width="96" height="8" rx="4" fill="#E6E2D6"/>
    <rect x="122" y="232" width="70" height="20" rx="10" fill="#F0F9FF"/>
    <circle cx="322" cy="148" r="14" fill="#E0F2FE"/>
  </g>
  <g transform="rotate(38 356 262)">
    <rect x="344" y="196" width="22" height="120" rx="4" fill="#EAB308" stroke="#15171E" stroke-width="2.5"/>
    <path d="M344 316h22l-11 24z" fill="#F4F1EA" stroke="#15171E" stroke-width="2.5" stroke-linejoin="round"/>
    <path d="M352 332l3 8 3-8" fill="#15171E"/>
    <rect x="344" y="196" width="22" height="12" fill="#DB2777" stroke="#15171E" stroke-width="2"/>
  </g>
  <circle cx="120" cy="84" r="4" fill="#0284C7" opacity="0.5"/>
  <circle cx="392" cy="110" r="5" fill="#DB2777" opacity="0.4"/>
  <circle cx="76" cy="268" r="4" fill="#15171E" opacity="0.25"/>
</svg>
